<?xml version="1.0" standalone="no"?>
<svg xmlns:xlink="http://www.w3.org/1999/xlink" id="wave" style="transform:rotate(180deg); transition: 0.3s" viewBox="0 0 1440 190" version="1.1" xmlns="http://www.w3.org/2000/svg"><defs><linearGradient id="sw-gradient-0" x1="0" x2="0" y1="1" y2="0"><stop stop-color="rgba(237, 242, 237, 1)" offset="0%"/><stop stop-color="rgba(237, 242, 237, 1)" offset="100%"/></linearGradient></defs><path style="transform:translate(0, 0px); opacity:1" fill="url(#sw-gradient-0)" d="M0,95L48,82.3C96,70,192,44,288,34.8C384,25,480,32,576,44.3C672,57,768,76,864,72.8C960,70,1056,44,1152,34.8C1248,25,1344,32,1440,34.8C1536,38,1632,38,1728,34.8C1824,32,1920,25,2016,31.7C2112,38,2208,57,2304,82.3C2400,108,2496,139,2592,152C2688,165,2784,158,2880,145.7C2976,133,3072,114,3168,101.3C3264,89,3360,82,3456,82.3C3552,82,3648,89,3744,82.3C3840,76,3936,57,4032,60.2C4128,63,4224,89,4320,82.3C4416,76,4512,38,4608,41.2C4704,44,4800,89,4896,88.7C4992,89,5088,44,5184,25.3C5280,6,5376,13,5472,41.2C5568,70,5664,120,5760,129.8C5856,139,5952,108,6048,95C6144,82,6240,89,6336,76C6432,63,6528,32,6624,15.8C6720,0,6816,0,6864,0L6912,0L6912,190L6864,190C6816,190,6720,190,6624,190C6528,190,6432,190,6336,190C6240,190,6144,190,6048,190C5952,190,5856,190,5760,190C5664,190,5568,190,5472,190C5376,190,5280,190,5184,190C5088,190,4992,190,4896,190C4800,190,4704,190,4608,190C4512,190,4416,190,4320,190C4224,190,4128,190,4032,190C3936,190,3840,190,3744,190C3648,190,3552,190,3456,190C3360,190,3264,190,3168,190C3072,190,2976,190,2880,190C2784,190,2688,190,2592,190C2496,190,2400,190,2304,190C2208,190,2112,190,2016,190C1920,190,1824,190,1728,190C1632,190,1536,190,1440,190C1344,190,1248,190,1152,190C1056,190,960,190,864,190C768,190,672,190,576,190C480,190,384,190,288,190C192,190,96,190,48,190L0,190Z"/></svg>