<?xml version="1.0" standalone="no"?>
<svg xmlns:xlink="http://www.w3.org/1999/xlink" id="wave" style="transform:rotate(180deg); transition: 0.3s" viewBox="0 0 1440 100" version="1.1" xmlns="http://www.w3.org/2000/svg"><defs><linearGradient id="sw-gradient-0" x1="0" x2="0" y1="1" y2="0"><stop stop-color="rgba(237, 242, 237, 1)" offset="0%"/><stop stop-color="rgba(237, 242, 237, 1)" offset="100%"/></linearGradient></defs><path style="transform:translate(0, 0px); opacity:1" fill="url(#sw-gradient-0)" d="M0,50L40,43.3C80,37,160,23,240,18.3C320,13,400,17,480,23.3C560,30,640,40,720,38.3C800,37,880,23,960,18.3C1040,13,1120,17,1200,18.3C1280,20,1360,20,1440,18.3C1520,17,1600,13,1680,16.7C1760,20,1840,30,1920,43.3C2000,57,2080,73,2160,80C2240,87,2320,83,2400,76.7C2480,70,2560,60,2640,53.3C2720,47,2800,43,2880,43.3C2960,43,3040,47,3120,43.3C3200,40,3280,30,3360,31.7C3440,33,3520,47,3600,43.3C3680,40,3760,20,3840,21.7C3920,23,4000,47,4080,46.7C4160,47,4240,23,4320,13.3C4400,3,4480,7,4560,21.7C4640,37,4720,63,4800,68.3C4880,73,4960,57,5040,50C5120,43,5200,47,5280,40C5360,33,5440,17,5520,8.3C5600,0,5680,0,5720,0L5760,0L5760,100L5720,100C5680,100,5600,100,5520,100C5440,100,5360,100,5280,100C5200,100,5120,100,5040,100C4960,100,4880,100,4800,100C4720,100,4640,100,4560,100C4480,100,4400,100,4320,100C4240,100,4160,100,4080,100C4000,100,3920,100,3840,100C3760,100,3680,100,3600,100C3520,100,3440,100,3360,100C3280,100,3200,100,3120,100C3040,100,2960,100,2880,100C2800,100,2720,100,2640,100C2560,100,2480,100,2400,100C2320,100,2240,100,2160,100C2080,100,2000,100,1920,100C1840,100,1760,100,1680,100C1600,100,1520,100,1440,100C1360,100,1280,100,1200,100C1120,100,1040,100,960,100C880,100,800,100,720,100C640,100,560,100,480,100C400,100,320,100,240,100C160,100,80,100,40,100L0,100Z"/></svg>