<?xml version="1.0" standalone="no"?>
<svg xmlns:xlink="http://www.w3.org/1999/xlink" id="wave" style="transform:rotate(180deg); transition: 0.3s" viewBox="0 0 1440 190" version="1.1" xmlns="http://www.w3.org/2000/svg"><defs><linearGradient id="sw-gradient-0" x1="0" x2="0" y1="1" y2="0"><stop stop-color="rgba(237, 242, 237, 1)" offset="0%"/><stop stop-color="rgba(237, 242, 237, 1)" offset="100%"/></linearGradient></defs><path style="transform:translate(0, 0px); opacity:1" fill="url(#sw-gradient-0)" d="M0,95L13.3,82.3C26.7,70,53,44,80,34.8C106.7,25,133,32,160,44.3C186.7,57,213,76,240,72.8C266.7,70,293,44,320,34.8C346.7,25,373,32,400,34.8C426.7,38,453,38,480,34.8C506.7,32,533,25,560,31.7C586.7,38,613,57,640,82.3C666.7,108,693,139,720,152C746.7,165,773,158,800,145.7C826.7,133,853,114,880,101.3C906.7,89,933,82,960,82.3C986.7,82,1013,89,1040,82.3C1066.7,76,1093,57,1120,60.2C1146.7,63,1173,89,1200,82.3C1226.7,76,1253,38,1280,41.2C1306.7,44,1333,89,1360,88.7C1386.7,89,1413,44,1440,25.3C1466.7,6,1493,13,1520,41.2C1546.7,70,1573,120,1600,129.8C1626.7,139,1653,108,1680,95C1706.7,82,1733,89,1760,76C1786.7,63,1813,32,1840,15.8C1866.7,0,1893,0,1907,0L1920,0L1920,190L1906.7,190C1893.3,190,1867,190,1840,190C1813.3,190,1787,190,1760,190C1733.3,190,1707,190,1680,190C1653.3,190,1627,190,1600,190C1573.3,190,1547,190,1520,190C1493.3,190,1467,190,1440,190C1413.3,190,1387,190,1360,190C1333.3,190,1307,190,1280,190C1253.3,190,1227,190,1200,190C1173.3,190,1147,190,1120,190C1093.3,190,1067,190,1040,190C1013.3,190,987,190,960,190C933.3,190,907,190,880,190C853.3,190,827,190,800,190C773.3,190,747,190,720,190C693.3,190,667,190,640,190C613.3,190,587,190,560,190C533.3,190,507,190,480,190C453.3,190,427,190,400,190C373.3,190,347,190,320,190C293.3,190,267,190,240,190C213.3,190,187,190,160,190C133.3,190,107,190,80,190C53.3,190,27,190,13,190L0,190Z"/></svg>